<svg xmlns="http://www.w3.org/2000/svg" xmlns:xlink="http://www.w3.org/1999/xlink" viewBox="0 0 894.4 91.2">
  <defs>
    <clipPath id="clip-path" transform="translate(0 0)">
      <rect width="894.4" height="91.19" style="fill: none"/>
    </clipPath>
  </defs>
  <g id="Layer_2" data-name="Layer 2">
    <g id="Layer_1-2" data-name="Layer 1">
      <g id="Artwork_6" data-name="Artwork 6">
        <g style="clip-path: url(#clip-path)">
          <path d="M745.6,21.4a86.9,86.9,0,0,0-9.1,9.1c13.6,13.6,23.3,34.3,26.6,58.3h13c-2.6-21.1-9.9-40.7-21.1-56.2a80.7,80.7,0,0,0-9.4-11.2" transform="translate(0 0)" style="fill: #46beaa"/>
          <path d="M729.7,39.6a92.2,92.2,0,0,0-6.6,11.9c7.7,9.7,13.4,22.6,16,37.3h13.1C749.7,73,744,58.5,735.5,46.7a57.8,57.8,0,0,0-5.8-7.1" transform="translate(0 0)" style="fill: #46beaa"/>
          <path d="M715,88.8h13.1a76.6,76.6,0,0,0-9.7-24.5A90,90,0,0,0,715,88.8" transform="translate(0 0)" style="fill: #46beaa"/>
          <path d="M857.2,16l-5.3-3.5-2.4,2.6A127.3,127.3,0,0,0,821,69.3a185.1,185.1,0,0,0-8-29A136.9,136.9,0,0,1,836,4.7c-2.1-.8-4.2-1.5-6.4-2.1a139.5,139.5,0,0,0-19.7,29.9A145.8,145.8,0,0,0,794,4.3L791,.2a81.5,81.5,0,0,0-14,3.3c10.8,12.4,19.6,28.2,25.6,46.2A165.1,165.1,0,0,0,797,70.2c-4.3-19.3-11.9-37.1-22.5-51.8A99.7,99.7,0,0,0,766,7.9a81.6,81.6,0,0,0-11.5,6.6c17,17.2,29.1,43.7,32.5,74.3h13.5a158.7,158.7,0,0,1,5.3-28.5,196.9,196.9,0,0,1,5,28.5h13c3.8-33.4,18.1-56,30.3-69.5,1-1.2,2-2.2,3.1-3.3" transform="translate(0 0)" style="fill: #46beaa"/>
          <path d="M874.1,31.9c-1.4-1.6-2.7-3.2-4.2-4.7-13.8,14.2-25.4,34.7-29,61.6h6.3c3.7-26.1,15-43.9,24.8-54.7l2.1-2.2" transform="translate(0 0)" style="fill: #46beaa"/>
          <path d="M864.4,88.8h6.3a81.4,81.4,0,0,1,16.1-36.2c-.9-2.1-1.9-4.2-3-6.2a87.4,87.4,0,0,0-19.4,42.4" transform="translate(0 0)" style="fill: #46beaa"/>
          <path d="M893.3,74.3a68.9,68.9,0,0,0-5.2,14.5h6.3a99,99,0,0,0-1.1-14.5" transform="translate(0 0)" style="fill: #46beaa"/>
          <polygon points="327.2 2.6 307.8 2.6 307.8 88.8 360.9 88.8 360.9 71.8 327.2 71.8 327.2 2.6" style="fill: #46beaa"/>
          <polygon points="468.1 2.6 461.1 2.6 461.1 88.8 507.4 88.8 507.4 82.5 468.1 82.5 468.1 2.6" style="fill: #46beaa"/>
          <rect x="515.4" y="2.6" width="7" height="86.23" style="fill: #46beaa"/>
          <polygon points="635.7 82.5 635.7 47.7 673.8 47.7 673.8 41.6 635.7 41.6 635.7 8.9 676.7 8.9 676.7 2.6 628.7 2.6 628.7 88.8 678.1 88.8 678.1 82.5 635.7 82.5" style="fill: #46beaa"/>
          <polygon points="605.3 82.5 603.9 82.5 553.9 2.6 541.3 2.6 541.3 88.8 548.3 88.8 548.3 8.9 550 8.9 600 88.8 612.3 88.8 612.3 2.6 605.3 2.6 605.3 82.5" style="fill: #46beaa"/>
          <polygon points="87.5 71.8 86.1 71.8 71.8 5 51.7 5 39 71.8 37.1 71.8 19.8 2.6 0 2.6 21.3 88.8 51 88.8 61.7 36.3 73.2 88.8 103.5 88.8 122.4 2.6 102.4 2.6 87.5 71.8" style="fill: #46beaa"/>
          <path d="M436.1,14.6C426.9,5.7,414.8,1.9,401,1.9H369V89.3h32a53.1,53.1,0,0,0,20.4-3.6,41.6,41.6,0,0,0,23.5-23.4,47.1,47.1,0,0,0,2.9-18.1c-.1-11.1-3.8-21.7-11.7-29.6M425.7,57.2a21.8,21.8,0,0,1-13.4,13.3,31.2,31.2,0,0,1-10.9,1.8H388.3V18.8h13.1a33.7,33.7,0,0,1,10.9,1.7,21.1,21.1,0,0,1,13.4,13c2.5,6.7,2.5,16.9,0,23.7" transform="translate(0 0)" style="fill: #46beaa"/>
          <path d="M188.8,3.8c-11.1-5.1-29.1-5.1-40,0a42.6,42.6,0,0,0-23.2,24.5,47.2,47.2,0,0,0-2.9,18.5c.2,16.5,10.1,33.1,25.7,40.3,11.1,5.5,29.7,5.5,40.8,0,15.6-7.2,25.5-23.8,25.7-40.3a45.9,45.9,0,0,0-11.7-32.7A43.4,43.4,0,0,0,188.8,3.8m-20,69.7c-16.4,0-25.8-12.9-25.8-27.9s8.8-27.9,25.8-27.9c14.5,0,25.9,10,25.9,27.9,0,15.1-9.6,27.9-25.9,27.9" transform="translate(0 0)" style="fill: #46beaa"/>
          <path d="M289.5,48.6c3.2-4.5,4.5-11.1,4.3-17.8a28.9,28.9,0,0,0-4.3-16C282.8,4.9,271.1,2,258.7,1.9H224.8V88.8h19.3V62.1h14.7l18.3,26.7h22.4L277.5,58a26.3,26.3,0,0,0,12-9.4m-17.7-9.2c-2.5,4.5-6.9,6.6-12.2,6.5H244.1V18.8h15.5c2.9,0,5.3.1,7.4,1.2a13.3,13.3,0,0,1,4.8,4.9,15.8,15.8,0,0,1,0,14.5" transform="translate(0 0)" style="fill: #46beaa"/>
        </g>
      </g>
    </g>
  </g>
</svg>
